<?xml version="1.0" encoding="utf-8"?>
<!-- Generator: Adobe Illustrator 16.0.0, SVG Export Plug-In . SVG Version: 6.00 Build 0)  -->
<!DOCTYPE svg PUBLIC "-//W3C//DTD SVG 1.1//EN" "http://www.w3.org/Graphics/SVG/1.1/DTD/svg11.dtd">
<svg version="1.1" xmlns="http://www.w3.org/2000/svg" xmlns:xlink="http://www.w3.org/1999/xlink" x="0px" y="0px" width="1489px"
	 height="600px" viewBox="0 0 1489 600" enable-background="new 0 0 1489 600" xml:space="preserve">
<g id="Rounded_Rectangle_1_1_" enable-background="new    ">
	<g id="Rounded_Rectangle_1">
		<g>
			<path fill="#FAE900" d="M1189,0H300C134.314,0,0,134.314,0,300s134.314,300,300,300h889c165.686,0,300-134.314,300-300
				S1354.686,0,1189,0z"/>
		</g>
	</g>
</g>
<g id="Ellipse_1_1_" enable-background="new    ">
	<g id="Ellipse_1">
		<g>
			<path fill-rule="evenodd" clip-rule="evenodd" fill="#1E1E1E" d="M365,152c-88.918,0-161,56.859-161,127
				c0,41.989,25.839,79.213,65.652,102.334L252,449c0,0-3,8.75,2,11c0,0,2.75,4.5,11-1l79.967-53.978
				C351.531,405.665,358.216,406,365,406c88.918,0,161-56.859,161-127S453.918,152,365,152z"/>
		</g>
	</g>
</g>
<g id="Rectangle_1_1_" enable-background="new    ">
	<g id="Rectangle_1">
		<g>
			<path fill-rule="evenodd" clip-rule="evenodd" fill="#1E1E1E" d="M741,173c-40.651-8.248-67.241,16.821-72.875,22.763
				L660.783,177H622v290h56v-79.581C809.304,414.615,807,279,807,279C809.333,174,741,173,741,173z M749,302c0,0-4.333,58.333-71,47
				V224c0,0,29.667-14.667,50-3C728,221,757,228,749,302z M930,172c-52.333-0.333-81,23-81,23l15,37c93.333-38,93,14,93,14v13h-40
				c-84.333,2-79,66-79,66c0.333,69.333,62,67,62,67c32.333,1,64-23,64-23l6,17h39V246C1004.333,165.667,930,172,930,172z M957,333
				c-17,14-44,16-44,16c-23.4-0.2-24-17-24-17c-7.4-36.4,36-37,36-37h32V333z M1184,170l-47,164l-48-164l-55,15l74,203
				c0,0-20,34.667-46,56l34,31c0,0,38-17,72-98l70-192L1184,170z"/>
		</g>
	</g>
</g>
</svg>
